<?xml version="1.0" encoding="UTF-8" standalone="no"?>
<!-- Created with Inkscape (http://www.inkscape.org/) -->

<svg
   width="137.58334mm"
   height="137.58334mm"
   viewBox="0 0 137.58334 137.58334"
   version="1.1"
   id="svg1"
   xml:space="preserve"
   xmlns:inkscape="http://www.inkscape.org/namespaces/inkscape"
   xmlns:sodipodi="http://sodipodi.sourceforge.net/DTD/sodipodi-0.dtd"
   xmlns="http://www.w3.org/2000/svg"
   xmlns:svg="http://www.w3.org/2000/svg"><sodipodi:namedview
     id="namedview1"
     pagecolor="#ffffff"
     bordercolor="#000000"
     borderopacity="0.25"
     inkscape:showpageshadow="2"
     inkscape:pageopacity="0.0"
     inkscape:pagecheckerboard="0"
     inkscape:deskcolor="#d1d1d1"
     inkscape:document-units="mm" /><defs
     id="defs1" /><g
     inkscape:label="Layer 1"
     inkscape:groupmode="layer"
     id="layer1"
     transform="translate(337.48905,-55.19681)"><rect
       style="fill:#9bd9db;fill-opacity:1;stroke-width:0.306404"
       id="rect1"
       width="137.58333"
       height="137.58333"
       x="-337.48904"
       y="55.196808" /><path
       d="m -264.46406,94.355127 c 0,2.34158 1.89176,4.23334 4.23332,4.23334 h 4.23334 c 2.34156,0 4.23334,1.891783 4.23334,4.233343 0,2.34156 -1.89178,4.23332 -4.23334,4.23332 h -42.33331 c -2.34158,0 -4.23334,1.89178 -4.23334,4.23334 0,2.34156 1.89176,4.23334 4.23334,4.23334 h 42.33331 c 7.01146,0 12.7,-5.68854 12.7,-12.7 0,-7.011463 -5.68854,-12.700003 -12.7,-12.700003 h -4.23334 c -2.34156,0 -4.23332,1.89178 -4.23332,4.23332 z m 8.46666,46.566673 c 0,2.34156 1.89178,4.23334 4.23334,4.23334 h 4.23334 c 7.01144,0 12.7,-5.68856 12.7,-12.7 0,-7.01148 -5.68856,-12.70001 -12.7,-12.70001 h -50.79999 c -2.34158,0 -4.23334,1.89178 -4.23334,4.23334 0,2.34155 1.89176,4.23333 4.23334,4.23333 h 50.79999 c 2.34156,0 4.23332,1.89178 4.23332,4.23334 0,2.34156 -1.89176,4.23332 -4.23332,4.23332 h -4.23334 c -2.34156,0 -4.23334,1.89178 -4.23334,4.23334 z m -29.63331,16.93334 h 4.23332 c 7.01146,0 12.7,-5.68854 12.7,-12.7 0,-7.01146 -5.68854,-12.7 -12.7,-12.7 h -16.93332 c -2.34158,0 -4.23334,1.89176 -4.23334,4.23332 0,2.34156 1.89176,4.23334 4.23334,4.23334 h 16.93332 c 2.34156,0 4.23334,1.89176 4.23334,4.23334 0,2.34156 -1.89178,4.23332 -4.23334,4.23332 h -4.23332 c -2.34156,0 -4.23334,1.89178 -4.23334,4.23334 0,2.34156 1.89178,4.23334 4.23334,4.23334 z"
       id="path1"
       style="fill:#02494c;fill-opacity:1;stroke-width:0.132292" /></g></svg>
